<mxfile host="65bd71144e">
    <diagram id="wqhEUMQ1esWjTfe69i2K" name="Page-1">
        <mxGraphModel dx="1002" dy="547" grid="1" gridSize="10" guides="1" tooltips="1" connect="1" arrows="1" fold="1" page="1" pageScale="1" pageWidth="850" pageHeight="1100" math="0" shadow="0">
            <root>
                <mxCell id="0"/>
                <mxCell id="1" parent="0"/>
                <mxCell id="15" value="0&amp;nbsp;" style="text;strokeColor=none;align=center;fillColor=none;html=1;verticalAlign=middle;whiteSpace=wrap;rounded=0;" vertex="1" parent="1">
                    <mxGeometry x="70" y="110" width="60" height="30" as="geometry"/>
                </mxCell>
                <mxCell id="16" value="" style="shape=ext;double=1;whiteSpace=wrap;html=1;aspect=fixed;strokeColor=#00FF80;" vertex="1" parent="1">
                    <mxGeometry x="90" y="50" width="430" height="430" as="geometry"/>
                </mxCell>
                <mxCell id="17" value="" style="edgeStyle=none;orthogonalLoop=1;jettySize=auto;html=1;" edge="1" parent="1" target="16">
                    <mxGeometry width="80" relative="1" as="geometry">
                        <mxPoint x="90" y="100" as="sourcePoint"/>
                        <mxPoint x="170" y="100" as="targetPoint"/>
                        <Array as="points"/>
                    </mxGeometry>
                </mxCell>
                <mxCell id="18" value="0" style="text;strokeColor=none;align=center;fillColor=none;html=1;verticalAlign=middle;whiteSpace=wrap;rounded=0;" vertex="1" parent="1">
                    <mxGeometry x="80" y="60" width="60" height="30" as="geometry"/>
                </mxCell>
                <mxCell id="19" value="0" style="text;strokeColor=none;align=center;fillColor=none;html=1;verticalAlign=middle;whiteSpace=wrap;rounded=0;" vertex="1" parent="1">
                    <mxGeometry x="100" y="60" width="60" height="30" as="geometry"/>
                </mxCell>
                <mxCell id="20" value="0" style="text;strokeColor=none;align=center;fillColor=none;html=1;verticalAlign=middle;whiteSpace=wrap;rounded=0;" vertex="1" parent="1">
                    <mxGeometry x="130" y="60" width="60" height="30" as="geometry"/>
                </mxCell>
                <mxCell id="23" style="edgeStyle=none;html=1;exitX=0;exitY=0;exitDx=0;exitDy=0;" edge="1" parent="1">
                    <mxGeometry relative="1" as="geometry">
                        <mxPoint x="155" y="100" as="sourcePoint"/>
                        <mxPoint x="155" y="100" as="targetPoint"/>
                        <Array as="points">
                            <mxPoint x="155" y="100"/>
                        </Array>
                    </mxGeometry>
                </mxCell>
                <mxCell id="24" value="1" style="text;strokeColor=none;align=center;fillColor=none;html=1;verticalAlign=middle;whiteSpace=wrap;rounded=0;" vertex="1" parent="1">
                    <mxGeometry x="90" y="90" width="60" height="30" as="geometry"/>
                </mxCell>
                <mxCell id="25" value="1" style="text;strokeColor=none;align=center;fillColor=none;html=1;verticalAlign=middle;whiteSpace=wrap;rounded=0;" vertex="1" parent="1">
                    <mxGeometry x="110" y="100" width="60" height="30" as="geometry"/>
                </mxCell>
                <mxCell id="26" value="1" style="text;strokeColor=none;align=center;fillColor=none;html=1;verticalAlign=middle;whiteSpace=wrap;rounded=0;" vertex="1" parent="1">
                    <mxGeometry x="130" y="90" width="60" height="30" as="geometry"/>
                </mxCell>
            </root>
        </mxGraphModel>
    </diagram>
</mxfile>